<svg
 xmlns="http://www.w3.org/2000/svg"
 xmlns:xlink="http://www.w3.org/1999/xlink"
 width="48px" height="49px">
<path fill-rule="evenodd"  stroke-width="1px" stroke="rgb(77, 157, 253)" fill="rgb(77, 157, 253)"
 d="M40.359,18.831 C40.076,17.955 39.725,17.105 39.309,16.293 L42.236,13.366 L34.755,5.887 L31.828,8.812 C31.016,8.398 30.166,8.046 29.290,7.763 L29.290,3.622 L18.710,3.622 L18.710,7.763 C17.833,8.046 16.984,8.398 16.172,8.812 L13.245,5.887 L5.763,13.366 L8.690,16.293 C8.275,17.105 7.923,17.955 7.641,18.831 L3.500,18.831 L3.500,29.412 L7.641,29.412 C7.923,30.288 8.275,31.137 8.690,31.950 L5.763,34.876 L13.245,42.357 L16.172,39.430 C16.984,39.846 17.833,40.197 18.710,40.480 L18.710,44.620 L29.290,44.620 L29.290,40.480 C30.166,40.197 31.016,39.846 31.828,39.430 L34.755,42.357 L42.236,34.876 L39.309,31.950 C39.725,31.137 40.076,30.288 40.359,29.412 L44.500,29.412 L44.500,18.831 L40.359,18.831 ZM4.822,20.153 L8.625,20.153 L8.764,19.678 C9.088,18.565 9.531,17.492 10.082,16.490 L10.321,16.055 L7.633,13.366 L13.244,7.756 L15.932,10.443 L16.367,10.205 C17.370,9.655 18.442,9.210 19.555,8.887 L20.032,8.748 L20.032,4.945 L23.339,4.945 L23.337,13.505 L24.264,13.100 C24.598,12.954 24.954,12.880 25.322,12.880 C26.781,12.880 27.968,14.067 27.968,15.525 C27.968,16.984 26.781,18.170 25.322,18.170 C24.954,18.170 24.598,18.096 24.264,17.950 L23.333,17.543 L23.336,23.458 L19.316,23.460 C19.352,23.243 19.371,23.023 19.371,22.799 C19.371,20.611 17.591,18.831 15.403,18.831 C13.215,18.831 11.435,20.611 11.435,22.799 C11.435,23.023 11.454,23.243 11.490,23.460 L4.822,23.460 L4.822,20.153 ZM23.339,43.298 L20.032,43.298 L20.032,39.496 L19.556,39.357 C18.443,39.033 17.370,38.590 16.368,38.039 L15.933,37.799 L13.245,40.488 L7.634,34.877 L10.322,32.189 L10.083,31.754 C9.532,30.752 9.088,29.679 8.764,28.566 L8.625,28.089 L4.822,28.089 L4.822,24.783 L13.383,24.784 L12.978,23.857 C12.832,23.523 12.758,23.168 12.758,22.799 C12.758,21.340 13.944,20.153 15.403,20.153 C16.862,20.153 18.048,21.340 18.048,22.799 C18.048,23.168 17.974,23.524 17.828,23.858 L17.421,24.789 L23.337,24.786 L23.339,28.805 C23.122,28.769 22.901,28.750 22.677,28.750 C20.489,28.750 18.710,30.530 18.710,32.718 C18.710,34.906 20.489,36.685 22.677,36.685 C22.901,36.685 23.122,36.667 23.339,36.631 L23.339,43.298 ZM43.177,28.089 L39.374,28.089 L39.236,28.566 C38.912,29.679 38.468,30.751 37.917,31.753 L37.679,32.188 L40.367,34.876 L34.756,40.487 L32.068,37.799 L31.633,38.038 C30.630,38.589 29.557,39.032 28.444,39.357 L27.968,39.496 L27.968,43.298 L24.661,43.298 L24.663,34.738 L23.735,35.143 C23.401,35.288 23.046,35.363 22.677,35.363 C21.219,35.363 20.032,34.177 20.032,32.718 C20.032,31.259 21.219,30.073 22.677,30.073 C23.046,30.073 23.402,30.147 23.736,30.293 L24.667,30.701 L24.664,24.785 L28.684,24.783 C28.647,25.000 28.629,25.220 28.629,25.445 C28.629,27.632 30.408,29.412 32.597,29.412 C34.785,29.412 36.564,27.632 36.564,25.445 C36.564,25.220 36.546,25.000 36.509,24.783 L43.177,24.783 L43.177,28.089 ZM43.177,23.460 L34.617,23.459 L35.022,24.386 C35.168,24.720 35.242,25.076 35.242,25.445 C35.242,26.903 34.055,28.089 32.597,28.089 C31.138,28.089 29.951,26.903 29.951,25.445 C29.951,25.076 30.026,24.720 30.172,24.385 L30.579,23.454 L24.663,23.457 L24.661,19.438 C24.878,19.475 25.099,19.492 25.322,19.492 C27.511,19.492 29.290,17.713 29.290,15.525 C29.290,13.337 27.511,11.557 25.322,11.557 C25.099,11.557 24.878,11.576 24.661,11.613 L24.661,4.945 L27.968,4.945 L27.968,8.748 L28.444,8.886 C29.557,9.210 30.629,9.654 31.632,10.205 L32.067,10.443 L34.755,7.755 L40.366,13.365 L37.678,16.054 L37.917,16.489 C38.468,17.492 38.911,18.565 39.235,19.678 L39.374,20.153 L43.177,20.153 L43.177,23.460 Z"/>
</svg>
